<?xml version="1.0" encoding="utf-8"?>
<svg id="master-artboard" viewBox="0 0 402.7413330078125 468.39093017578125" version="1.1" xmlns="http://www.w3.org/2000/svg" x="0px" y="0px" style="enable-background:new 0 0 1400 980;" width="402.7413330078125px" height="468.39093017578125px"><rect id="ee-background" x="0" y="0" width="402.7413330078125" height="468.39093017578125" style="fill: white; fill-opacity: 0; pointer-events: none;"/>

<path class="st0" d="M1082.1,790h0.7c15.1,0,29.3-6.6,39-18.1h97.5c1.4-5.3,2.3-10.7,2.9-16.2h9.2&#10;&#9;&#9;&#9;c-8.5,74.9-72.1,133.2-149.3,133.2S941.3,830.7,933,755.8h9.2c0.6,5.4,1.6,10.8,2.8,16.2h97.5c9.7,11.5,24,18.1,39.1,18.1H1082.1z&#10;&#9;&#9;&#9; M1082.1,880c65.1,0,119.9-44.1,136.2-103.9h-94.6c-10.5,11.4-25.3,18.1-40.9,18.1h-0.7h-0.6c-15.7,0-30.5-6.7-40.9-18.1H946&#10;&#9;&#9;&#9;C962.4,835.9,1017,880,1082.1,880L1082.1,880z" style="fill-rule: evenodd; clip-rule: evenodd; fill: rgb(1, 1, 1);" transform="matrix(1, 0, 0, 1, -894.7798004150391, -429.1539001464844)"/><path class="st0" d="M937.5,751.3h289.4c2.5,0,4.5,2,4.5,4.5l0,0c0,2.5-2,4.5-4.5,4.5H937.5c-2.5,0-4.5-2-4.5-4.5l0,0&#10;&#9;&#9;&#9;C933,753.3,935,751.3,937.5,751.3L937.5,751.3z" style="fill-rule: evenodd; clip-rule: evenodd; fill: rgb(1, 1, 1);" transform="matrix(1, 0, 0, 1, -894.7798004150391, -429.1539001464844)"/><path class="st0" d="M1127.7,751.3c-5.4,20-23.7,34.8-45.5,34.8c-21.7,0-40.1-14.8-45.5-34.8h9.5c5.2,14.9,19.3,25.8,36,25.8&#10;&#9;&#9;&#9;s31-10.8,36-25.8H1127.7z" style="fill-rule: evenodd; clip-rule: evenodd; fill: rgb(1, 1, 1);" transform="matrix(1, 0, 0, 1, -894.7798004150391, -429.1539001464844)"/><path class="st0" d="M986.8,644.3c1.1-6.8,0.8-12.8,0.5-19.7c-0.9-15.9,3.2-28.8,11.1-39.5c5.1-2.9,10.5-2.5,13.8-2&#10;&#9;&#9;&#9;c-11,10.5-16.8,23.4-15.8,41.1c0.3,6.3,0.9,13.1-0.6,21.7c-2.7,15.3-7.9,30.4-3.7,41.7c7.5,20.6,26.7,34.5,49.9,41.7&#10;&#9;&#9;&#9;c-27.1,7.3-49.8-14.7-58.5-38.6C978.2,676.4,984.3,658.7,986.8,644.3L986.8,644.3z M1122.3,729.3c23.4-7.2,42.6-21.1,50.1-41.7&#10;&#9;&#9;&#9;c4.1-11.3-1.1-26.4-3.7-41.7c-1.5-8.6-1-15.4-0.7-21.7c1.1-20.1-6.6-34-20.3-45.2c0.8-1.5,12.2-8,23.5,14.6&#10;&#9;&#9;&#9;c4.4,8.9,6.6,19.1,5.9,31.1c-0.3,6.9-0.7,12.9,0.6,19.7c2.5,14.5,8.5,32.1,3.3,46.3C1172.2,714.6,1149.5,736.6,1122.3,729.3&#10;&#9;&#9;&#9;L1122.3,729.3z M1133.9,569.8c-25.6-14.2-77.8-14.2-103.5,0c-1.5-3.6-1.5-6.9-0.5-9.9c29.6-13.9,82.3-13.1,109.3,2.5&#10;&#9;&#9;&#9;c0.9,0.6,1.6,1,2.5,1.5C1139.3,565.5,1136.5,567.7,1133.9,569.8L1133.9,569.8z" style="fill-rule: evenodd; clip-rule: evenodd; fill: rgb(1, 1, 1);" transform="matrix(1, 0, 0, 1, -894.7798004150391, -429.1539001464844)"/><path class="st0" d="M999.8,594.6c-32.8-15.8-61.2-52.1-77.4-78c-4.7-7.6-16.3-27.1-9.7-36c7-9.5,27.8-1.4,36,2.1&#10;&#9;&#9;&#9;c17.3,7.2,34,18.3,48.7,29.8c16.8,13.1,31.3,28.6,42.6,46.7c0.6,0.9,1,1.8,1.6,2.6c-1.9,0.2-3.8,0.6-5.9,1.2&#10;&#9;&#9;&#9;c-1.1,0.3-2.1,0.8-3.2,1.2c-8-12.8-20.3-28.7-40.7-44.6C973,505,957.2,496,945.2,491.1c-15.1-6.3-24.1-6.7-25.3-5.1&#10;&#9;&#9;&#9;c-1.2,1.7,1.6,12.2,10.2,25.8c15.5,24.7,43.7,60.9,75.1,75.4C1003.1,589.7,1001.3,592.2,999.8,594.6L999.8,594.6z" style="fill-rule: evenodd; clip-rule: evenodd; fill: rgb(1, 1, 1);" transform="matrix(1, 0, 0, 1, -894.7798004150391, -429.1539001464844)"/><path class="st0" d="M1128.3,562.7c2.9-2.5,6-4.7,9.3-7c17.4-12.3,36.7-21,57.3-26.6c18.1-5,37.7-8.8,56.5-8.7&#10;&#9;&#9;&#9;c8.9,0,31.2,0.6,34,12c1.5,6-2.9,11.5-6.7,15.6c-4.7,5.2-10.5,9.8-16.2,13.9c-22.6,15.9-57.7,35.7-91.1,40.8&#10;&#9;&#9;&#9;c-0.7-2.8-1.8-5.8-3.3-8.6c32.2-4.4,67.3-24.3,89-39.7c13.2-9.3,19.9-17.7,19.3-19.8c-0.5-2-8.8-5.2-25.2-5.2&#10;&#9;&#9;&#9;c-13.1,0-31,2-54.1,8.4c-28.7,7.8-47.6,19.8-59.9,29.2C1134.3,565.4,1131.3,564,1128.3,562.7L1128.3,562.7z" style="fill-rule: evenodd; clip-rule: evenodd; fill: rgb(1, 1, 1);" transform="matrix(1, 0, 0, 1, -894.7798004150391, -429.1539001464844)"/><path class="st0" d="M992,704.8c3.7,2,7.9,4.3,11.9,7c2.1,8.6,2.5,23.6-9.3,44l-10.7,0.2c6.7-10.2,12.4-22.9,12.1-35.4&#10;&#9;&#9;&#9;C995.7,714,993.8,710.4,992,704.8L992,704.8z" style="fill-rule: evenodd; clip-rule: evenodd; fill: rgb(1, 1, 1);" transform="matrix(1, 0, 0, 1, -894.7798004150391, -429.1539001464844)"/><path class="st0" d="M1172.4,704.8c-3.8,2-8,4.3-12,7c-2,8.6-2.5,23.6,9.3,44l10.7,0.2c-6.7-10.2-12.4-22.9-12.1-35.4&#10;&#9;&#9;&#9;C1168.6,714,1170.5,710.4,1172.4,704.8L1172.4,704.8z" style="fill-rule: evenodd; clip-rule: evenodd; fill: rgb(1, 1, 1);" transform="matrix(1, 0, 0, 1, -894.7798004150391, -429.1539001464844)"/><path class="st0" d="M1133.8,633.2c8.2,0,14.8,6.7,14.8,14.8c0,8.2-6.6,14.8-14.8,14.8c-8.1,0-14.8-6.6-14.8-14.8&#10;&#9;&#9;&#9;C1119,639.9,1125.6,633.2,1133.8,633.2L1133.8,633.2z M1129.2,636.4c3.1,0,5.6,2.5,5.6,5.6c0,3.1-2.6,5.5-5.6,5.5&#10;&#9;&#9;&#9;c-3.2,0-5.6-2.5-5.6-5.5C1123.6,638.9,1126.1,636.4,1129.2,636.4L1129.2,636.4z" style="fill-rule: evenodd; clip-rule: evenodd; fill: rgb(1, 1, 1);" transform="matrix(1, 0, 0, 1, -894.7798004150391, -429.1539001464844)"/><path class="st0" d="M1030.5,633.2c8.2,0,14.8,6.7,14.8,14.8c0,8.2-6.6,14.8-14.8,14.8c-8.1,0-14.8-6.6-14.8-14.8&#10;&#9;&#9;&#9;C1015.7,639.9,1022.4,633.2,1030.5,633.2L1030.5,633.2z M1026.4,636.4c3.2,0,5.6,2.5,5.6,5.6c0,3.1-2.5,5.5-5.6,5.5&#10;&#9;&#9;&#9;c-3.1,0-5.6-2.5-5.6-5.5C1020.8,638.9,1023.4,636.4,1026.4,636.4L1026.4,636.4z" style="fill-rule: evenodd; clip-rule: evenodd; fill: rgb(1, 1, 1);" transform="matrix(1, 0, 0, 1, -894.7798004150391, -429.1539001464844)"/><path class="st0" d="M1004.7,668.8c13.9,0,25.9,10.8,25.9,25c0,16.9-16.7,28.2-32.5,24.2c0-1.4,0.1-2.8,0-4.2c2.1,0.7,4.3,1,6.7,1&#10;&#9;&#9;&#9;c12.1,0,21.8-9.4,21.8-21c0-11.5-9.7-21-21.8-21c-8,0-14.9,4.1-18.8,10.2c-0.2-1.4-1-3.3-1.8-4.4&#10;&#9;&#9;&#9;C989,672.5,996.5,668.8,1004.7,668.8L1004.7,668.8z M1159.6,672.8c-12.1,0-21.9,9.5-21.9,21c0,13.6,12.9,22.8,25.8,20.7&#10;&#9;&#9;&#9;c-0.5,1.2-0.7,2.7-0.5,4.1c-15,2-29.4-9.2-29.4-24.7c0-14.1,12-25,26-25c8.2,0,15.8,3.8,20.7,9.9c-1.2,0.7-2.3,1.6-2.9,2.7&#10;&#9;&#9;&#9;C1173.3,676.3,1166.9,672.8,1159.6,672.8L1159.6,672.8z" style="fill-rule: evenodd; clip-rule: evenodd; fill: rgb(1, 1, 1);" transform="matrix(1, 0, 0, 1, -894.7798004150391, -429.1539001464844)"/><path class="st0" d="M1082.7,683.5c-5,0-10.1,6.6-18,6.6c-4.3,0-9.3-1.5-12.9-4.4c-5-4.2-3.6-10.3,0-12&#10;&#9;&#9;&#9;c-3.2,7.6,6.4,12.4,12.9,12.4c7.3,0,11.6-6.4,18-6.6c6.2,0.1,10.5,6.6,17.9,6.6c6.4,0,16-4.9,12.9-12.4c3.6,1.7,5.1,7.8,0,12&#10;&#9;&#9;&#9;c-3.5,2.9-8.5,4.4-12.9,4.4C1093,690,1088.3,683.7,1082.7,683.5L1082.7,683.5z" style="fill-rule: evenodd; clip-rule: evenodd; fill: rgb(1, 1, 1);" transform="matrix(1, 0, 0, 1, -894.7798004150391, -429.1539001464844)"/><path class="st0" d="M1082.1,661.2c2.3,0,4.1-0.1,4.1,0.9s-1.8,1.8-4.1,1.8c-2.1,0-4-0.8-4-1.8S1080,661.2,1082.1,661.2&#10;&#9;&#9;&#9;L1082.1,661.2z" style="fill-rule: evenodd; clip-rule: evenodd; fill: rgb(1, 1, 1);" transform="matrix(1, 0, 0, 1, -894.7798004150391, -429.1539001464844)"/><path class="st0" d="M952.8,489.4c0,0-8.8,40.3,2.8,62.6c0,0-39.3-39.7-40-62.6C915,466.4,952.8,489.4,952.8,489.4L952.8,489.4z" style="fill-rule: evenodd; clip-rule: evenodd; fill: rgb(1, 1, 1);" transform="matrix(1, 0, 0, 1, -894.7798004150391, -429.1539001464844)"/><path class="st0" d="M1244.8,525.4c0,0-2,33.9-29.2,58.1c0,0,53.8-24.1,62.3-45.4C1286.4,516.7,1244.8,525.4,1244.8,525.4&#10;&#9;&#9;&#9;L1244.8,525.4z" style="fill-rule: evenodd; clip-rule: evenodd; fill: rgb(1, 1, 1);" transform="matrix(1, 0, 0, 1, -894.7798004150391, -429.1539001464844)"/><path class="st0" d="M1198.3,672l28,31.7c3.4,3.8,5.9,8.5,4.6,13.8c-1.4,5.3-5.8,8.1-10.5,10.3l-32.5,14.8l10.7,12.5&#10;&#9;&#9;&#9;c-1.4-0.2-2.8-0.1-4.2,0.2c-0.5,0.1-0.9,0.1-1.4,0.3c-1.9,0-4-0.2-5.8,0.2l-10.8-12.8c-3.7-4.4-4.1-3.4,1.1-5.8l39.1-17.9&#10;&#9;&#9;&#9;c6-2.7,7.3-4.6,2.8-9.8l-34-38.4c-2.8-3.3-2.5-4.2,1.2-5.3l70.4-21c7.7-2.3,7.9-1.7,11.2-9.6c7.2-17.4,9.7-50.7,10.5-67.7&#10;&#9;&#9;&#9;c0.3-8.1-2-10.1-9.3-8.6c-8.4,1.8-16.9,4.1-25.8,6.8c2.6-2.8,3.2-6.8,1.7-10.1c7.3-2.1,14.7-4,22.1-5.5&#10;&#9;&#9;&#9;c13.7-2.9,20.8,4.3,20.2,17.9c-1,20.6-3.4,52-11.2,70.7c-4.3,10.5-6.4,11.6-16.9,14.7L1198.3,672z M1166.3,706.5&#10;&#9;&#9;&#9;c2.6,1.5,4.9,2.7,6.7,3.7c4.1,2.3,4.3,3.1,0.3,5.4l-7.7,4.5c0.1-0.6,0.2-1.1,0.2-1.9c0.2-1,0.3-2,0.6-2.9c0.2-0.8,0.3-1.5,0.3-2.3&#10;&#9;&#9;&#9;C1166.8,710.9,1167,708.6,1166.3,706.5L1166.3,706.5z" style="fill-rule: evenodd; clip-rule: evenodd; fill: rgb(1, 1, 1);" transform="matrix(1, 0, 0, 1, -894.7798004150391, -429.1539001464844)"/><path class="st0" d="M1082.1,460c53.2,0,100,27.8,126.7,69.6c-3.3-0.7-6.6,0.7-8.6,3.3c-25.2-38.4-68.7-63.8-118.1-63.8&#10;&#9;&#9;&#9;c-36.6,0-69.9,14-95,36.8c-1.7-2.1-4.3-3.5-7.2-3.5h-2.3C1004.7,476.2,1041.6,460,1082.1,460L1082.1,460z M1223.5,661.1&#10;&#9;&#9;&#9;c-4.1,11.3-9.5,21.8-15.9,31.6c-0.1-3.6-2.3-6.8-5.5-8.1c4.6-7.6,8.7-15.5,11.9-23.8C1216.7,662.7,1220.4,662.8,1223.5,661.1&#10;&#9;&#9;&#9;L1223.5,661.1z M998.1,734.6c-39.9-27-66.1-72.7-66.1-124.4c0-24,5.6-46.7,15.7-66.8c1.4,2.9,4.2,5.1,7.5,5.3&#10;&#9;&#9;&#9;c-9,18.6-14.1,39.4-14.1,61.5c0,47.5,23.4,89.4,59.3,114.9C997.7,727.6,996.9,731.3,998.1,734.6L998.1,734.6z" style="fill-rule: evenodd; clip-rule: evenodd; fill: rgb(1, 1, 1);" transform="matrix(1, 0, 0, 1, -894.7798004150391, -429.1539001464844)"/><path class="st0" d="M1082.1,500c34.9,0,66.1,16.3,86.2,41.6c-1.2,0.5-2.4,1.2-3.4,2.1c-19.4-24.2-49.3-39.7-82.8-39.7&#10;&#9;&#9;&#9;c-25.1,0-48,8.6-66.2,23.2c-1.2-1-2.7-1.6-4.2-1.8C1030.8,509.5,1055.3,500,1082.1,500L1082.1,500z M986.3,664.5&#10;&#9;&#9;&#9;c-9.2-16-14.3-34.6-14.3-54.3c0-12,1.9-23.6,5.5-34.5c1,0.8,2.4,1.4,3.7,1.6c-3.4,10.4-5.2,21.5-5.2,32.9c0,19,5,36.8,13.7,52.2&#10;&#9;&#9;&#9;C988.3,662.8,987.2,663.6,986.3,664.5L986.3,664.5z" style="fill-rule: evenodd; clip-rule: evenodd; fill: rgb(1, 1, 1);" transform="matrix(1, 0, 0, 1, -894.7798004150391, -429.1539001464844)"/>
</svg>